#!OML:ASF F:\VICON\USERDATA\INSTALL\rory3\rory3.ASF
:FULLY-SPECIFIED
:DEGREES
612
root 4.38046 16.16 7.03303 6.42867 -5.34746 -5.00172
lowerback 6.89026 -0.860596 0.223647
upperback -1.62003 -1.02993 1.86739
thorax -5.52348 -0.48384 1.9369
lowerneck -5.79069 -12.6964 -11.9335
upperneck 12.0542 -17.2738 9.44128
head 6.46872 -8.39723 3.3505
rclavicle 3.04886e-014 -3.18055e-015
rhumerus -41.3539 7.55707 -79.1655
rradius 65.1449
rwrist 9.55689
rhand -26.2405 -53.7563
rfingers 7.12502
rthumb 0.313418 -83.7358
lclavicle 3.04886e-014 -3.18055e-015
lhumerus -39.8673 -21.6807 76.458
lradius 71.9542
lwrist -8.25305
lhand -32.351 -48.5908
lfingers 7.12502
lthumb -5.58767 -18.6845
rfemur -94.6542 9.6368 15.5915
rtibia 126.957
rfoot -7.26067 -11.7956
rtoes -4.51789
lfemur -32.0193 7.17851 -23.6602
ltibia 56.5041
lfoot -25.2455 4.16157
ltoes -3.16946
613
root 4.3677 16.218 7.04962 6.28229 -5.30283 -4.86849
lowerback 6.69288 -0.947761 0.0658646
upperback -1.58896 -1.16646 1.80558
thorax -5.37239 -0.548383 1.97153
lowerneck -5.84851 -12.7432 -12.0615
upperneck 12.2521 -17.338 9.44687
head 6.56054 -8.42914 3.35303
rclavicle -1.23495e-014 9.54166e-015
rhumerus -41.4725 8.12135 -79.2543
rradius 65.6644
rwrist 9.10556
rhand -25.3435 -56.5091
rfingers 7.12502
rthumb 1.17976 -86.4856
lclavicle -1.23495e-014 9.54166e-015
lhumerus -39.7236 -21.9444 75.5257
lradius 72.7178
lwrist -8.14074
lhand -32.1882 -48.9091
lfingers 7.12502
lthumb -5.43042 -18.9987
rfemur -94.5965 9.06546 15.3304
rtibia 126.859
rfoot -7.37831 -11.5026
rtoes -4.65901
lfemur -31.2229 6.81878 -23.7092
ltibia 55.5907
lfoot -24.9104 4.38117
ltoes -3.22826
614
root 4.35666 16.2885 7.07117 6.14036 -5.17512 -4.84914
lowerback 6.60922 -1.05746 0.0576433
upperback -1.68401 -1.31373 1.79857
thorax -5.41956 -0.620423 1.98499
lowerneck -5.8352 -12.792 -12.1539
upperneck 12.6305 -17.3919 9.2025
head 6.67064 -8.47114 3.27594
rclavicle 1.17531e-014 6.55989e-015
rhumerus -41.8414 8.57357 -79.1713
rradius 66.176
rwrist 9.08992
rhand -25.3923 -54.8354
rfingers 7.12502
rthumb 1.13271 -84.8121
lclavicle 1.17531e-014 6.55989e-015
lhumerus -39.9213 -22.1567 74.7727
lradius 73.4874
lwrist -8.13827
lhand -32.0439 -49.2091
lfingers 7.12502
lthumb -5.29107 -19.2952
rfemur -94.5534 8.30772 15.2465
rtibia 126.927
rfoot -7.657 -11.2596
rtoes -4.56758
lfemur -30.2634 6.31574 -23.6263
ltibia 54.3817
lfoot -24.5016 4.59647
ltoes -2.933
615
root 4.33847 16.376 7.09257 6.07756 -4.96856 -5.07701
lowerback 6.38983 -1.16218 0.211992
upperback -1.78814 -1.43723 1.88493
thorax -5.40151 -0.685035 1.99802
lowerneck -5.79346 -12.8383 -12.2407
upperneck 13.0125 -17.4438 8.9478
head 6.77576 -8.51416 3.19674
rclavicle -3.57812e-015 4.37326e-015
rhumerus -42.1612 8.95455 -79.0507
rradius 66.5589
rwrist 9.08959
rhand -25.5683 -53.0479
rfingers 7.12502
rthumb 0.962658 -83.0255
lclavicle -3.57812e-015 4.37326e-015
lhumerus -39.9185 -22.5507 74.1064
lradius 73.9393
lwrist -8.20405
lhand -31.9373 -49.054
lfingers 7.12502
lthumb -5.18818 -19.1375
rfemur -94.5501 7.57712 15.4825
rtibia 127.036
rfoot -7.72716 -10.999
rtoes -4.66391
lfemur -29.2918 5.78761 -23.231
ltibia 52.9388
lfoot -23.8919 4.90813
ltoes -3.37012
616
root 4.31269 16.487 7.10008 6.23186 -4.83325 -5.61179
lowerback 6.05484 -1.21878 0.472616
upperback -1.92224 -1.48281 2.11189
thorax -5.35092 -0.712549 2.08632
lowerneck -5.81621 -12.8469 -12.3987
upperneck 13.3856 -17.4522 8.84481
head 6.9053 -8.52819 3.17521
rclavicle 1.95306e-014 -2.78299e-015
rhumerus -42.427 9.3879 -78.9953
rradius 66.8636
rwrist 8.89409
rhand -25.8611 -53.3543
rfingers 7.12502
rthumb 0.679938 -83.333
lclavicle 1.95306e-014 -2.78299e-015
lhumerus -39.688 -23.0343 73.5401
lradius 74.0914
lwrist -8.37631
lhand -32.0738 -48.3009
lfingers 7.12502
lthumb -5.31997 -18.3877
rfemur -94.9149 7.154 16.081
rtibia 127.069
rfoot -7.27143 -10.754
rtoes -4.69412
lfemur -28.5131 5.35494 -22.472
ltibia 51.2767
lfoot -22.9979 5.3612
ltoes -4.74585
617
root 4.29231 16.6173 7.10627 6.4929 -4.68578 -6.18844
lowerback 5.81849 -1.30272 0.80343
upperback -2.19985 -1.55503 2.36024
thorax -5.50767 -0.753863 2.16651
lowerneck -5.84462 -12.8578 -12.5525
upperneck 13.8614 -17.4674 8.70868
head 7.06678 -8.54728 3.13923
rclavicle 2.03133e-014 -1.19271e-014
rhumerus -42.8226 9.95538 -79.0269
rradius 66.9898
rwrist 8.67443
rhand -24.9276 -54.9501
rfingers 7.12502
rthumb 1.58146 -84.924
lclavicle 2.03133e-014 -1.19271e-014
lhumerus -39.7916 -23.4743 73.1415
lradius 74.3483
lwrist -8.47696
lhand -32.2275 -47.8828
lfingers 7.12502
lthumb -5.46841 -17.9733
rfemur -95.3537 6.64712 16.7371
rtibia 127.12
rfoot -6.92683 -10.6011
rtoes -4.56463
lfemur -27.7326 4.79482 -21.6787
ltibia 49.3686
lfoot -21.9021 5.73657
ltoes -5.37034
618
root 4.27757 16.7529 7.12159 6.64356 -4.42176 -6.52165
lowerback 5.64202 -1.47633 1.04694
upperback -2.49451 -1.75748 2.51381
thorax -5.71344 -0.858518 2.21324
lowerneck -5.65663 -12.8375 -12.6884
upperneck 14.1805 -17.4554 8.5842
head 7.13759 -8.56143 3.12604
rclavicle -1.00262e-014 1.11319e-014
rhumerus -43.2598 10.6174 -79.1337
rradius 66.9164
rwrist 8.62089
rhand -25.4682 -53.5527
rfingers 7.12502
rthumb 1.05935 -83.5299
lclavicle -1.00262e-014 1.11319e-014
lhumerus -40.1696 -23.7018 72.7953
lradius 74.763
lwrist -8.57
lhand -32.1695 -47.8781
lfingers 7.12502
lthumb -5.4124 -17.9672
rfemur -95.4884 5.72022 17.1631
rtibia 127.358
rfoot -6.77605 -10.3795
rtoes -5.15818
lfemur -26.6589 4.02686 -21.1607
ltibia 47.204
lfoot -20.6656 5.85859
ltoes -5.21557
619
root 4.26422 16.8993 7.14171 6.71867 -4.18864 -6.70173
lowerback 5.34238 -1.65883 1.17939
upperback -2.63663 -1.98993 2.63437
thorax -5.68554 -0.976389 2.28186
lowerneck -5.43321 -12.7443 -12.8884
upperneck 14.248 -17.3432 8.60792
head 7.12938 -8.52376 3.18897
rclavicle 8.62228e-015 -2.00773e-014
rhumerus -43.4801 11.2388 -79.1941
rradius 66.7557
rwrist 8.77282
rhand -25.8704 -52.4391
rfingers 7.12502
rthumb 0.67092 -82.4178
lclavicle 8.62228e-015 -2.00773e-014
lhumerus -40.3773 -23.7788 72.4634
lradius 75.1407
lwrist -8.625
lhand -32.1314 -47.5215
lfingers 7.12502
lthumb -5.37558 -17.6097
rfemur -95.5211 4.72948 17.3771
rtibia 127.682
rfoot -6.62805 -9.9475
rtoes -5.67906
lfemur -25.3278 3.21755 -20.8007
ltibia 44.7662
lfoot -19.1888 5.92073
ltoes -5.70364
